<?xml version="1.0" encoding="UTF-8"?>
<!-- Created with Inkscape (http://www.inkscape.org/) -->
<svg width="181.67mm" height="138.82mm" version="1.1" viewBox="0 0 686.63 524.68" xml:space="preserve" xmlns="http://www.w3.org/2000/svg"><g transform="matrix(1.3333 0 0 -1.3333 -232.2 1001.7)"><g fill-rule="evenodd"><g fill="#112a6a"><path d="m641.63 490.87c-11.357 0-22.713-0.0193-34.07 0.0147-2.509 8e-3 -5.0638-0.068-7.5158 0.3714-4.803 0.8583-7.9645 4.5544-7.8421 9.4113 0.2081 8.259 5.6339 15.593 14.613 15.488 23.617-0.2809 47.24-0.1219 70.861-0.0675 4.0473 8e-3 7.7984-0.4682 9.7642-4.6057 2.0817-4.388 2.5135-8.9847-0.3453-13.142-1.6084-2.3363-3.8029-4.3599-6.0236-6.1512-18.941-15.254-37.948-30.422-56.931-45.622-0.8898-0.7143-1.7456-1.4706-2.3369-3.0407 1.2316-0.0607 2.4639-0.1704 3.695-0.1735 12.11-0.0456 24.22 3e-3 36.329-0.1346 7.0755-0.08 10.292-3.6548 10.04-10.712-0.2968-8.301-6.3544-14.288-14.553-14.295-23.74-0.0182-47.481-0.0182-71.222 0-8.0005 5e-3 -12.226 5.6843-10.14 13.562 1.3201 4.9881 4.1729 8.8356 8.1949 12.027 18.391 14.589 36.702 29.277 55.037 43.937 0.9221 0.737 1.7895 1.5455 2.6822 2.3188z"/><path d="m240.24 469.82c-1.1041 7.4922-2.0773 14.42-3.174 21.33-0.3195 2.0186 0 4.6242-3.1652 4.8569-2.988 0.22-5.2662-0.4221-6.6149-3.6255-2.7173-6.4531-5.7594-12.767-8.6389-19.151-0.4623-1.0228-0.7744-2.1144-1.2407-3.4098zm30.192-38.609c-3e-3 -9.4144-7.9926-16.104-16.29-14.454-4.4739 0.8903-6.7181 3.992-7.4114 8.2958-1.0205 6.3267-2.007 12.665-2.7374 19.03-0.2827 2.465-1.1359 3.2907-3.5785 3.2652-10.065-0.1125-20.133-0.1415-30.198 0.0147-2.4885 0.0391-3.5651-0.9331-4.5031-3.0897-3.0844-7.0875-6.2215-14.161-9.6361-21.093-2.6558-5.3915-7.3494-7.4537-13.18-6.3845-6.2949 1.1548-10.026 7.0044-8.339 13.273 0.5321 1.9683 1.3235 3.8897 2.1847 5.7421 11.35 24.436 22.813 48.817 34.053 73.303 2.9534 6.4335 7.6898 9.2472 14.464 9.2152 6.5914-0.0326 13.183 0 19.774-8e-3 8.1354-0.0102 11.616-2.9032 12.953-10.961 2.4565-14.795 4.8243-29.605 7.2635-44.404 1.5557-9.4337 3.1796-18.856 4.7514-28.287 0.2384-1.4275 0.3583-2.8749 0.4298-3.458"/><path d="m372.66 466.02c5.77 0 11.252 0.0119 16.734-5e-3 3.5949-0.0116 7.1927 0.0275 10.784-0.1179 4.6913-0.1933 7.0169-2.9452 6.3703-7.6481-0.9921-7.2236-3.5377-11.544-12.05-11.262-7.541 0.25-15.098-0.0116-22.646 0.0533-2.4576 0.0213-4.536 0.0391-4.7403-3.3233-0.2362-3.8747 1.0499-6.5308 4.0957-6.9801 2.4767-0.3662 5.0137-0.4221 7.5252-0.4345 11.976-0.0607 23.954 0.0683 35.927-0.1321 5.8098-0.0955 7.7482-2.166 7.721-7.1456-0.0326-6.0622-3.7752-10.768-8.8696-10.794-14.739-0.0765-29.479-0.03-44.219-0.03-2.1566 0-4.314-6e-3 -6.4706 0-11.789 0.034-19.04 9.0465-16.511 21.296 2.4673 11.953 5.2872 23.854 8.5193 35.62 3.45 12.562 13.528 19.814 26.398 19.826 15.578 0.0125 31.157 8e-3 46.735-2e-3 5.7101-5e-3 8.3214-2.0412 8.4447-6.5282 0.1703-6.1404-3.2845-11.098-8.2925-11.332-5.98-0.2793-11.979-0.2092-17.969-0.2194-8.3889-0.0131-16.779 0.157-25.163 0.0257-6.26-0.0969-11.026-4.2463-12.321-10.867"/><path d="m535.42 438.22v-0.0144c2.5127 0 5.0242-0.0241 7.5357 5e-3 5.4121 0.0629 9.5867 2.8803 10.991 8.1116 1.9687 7.3324 3.6559 14.752 5.1942 22.191 0.9238 4.4672-1.2775 7.011-5.7486 7.079-5.3805 0.0833-10.765 0.0816-16.146-2e-3 -4.64-0.0723-9.2041-3.0957-10.374-7.5484-2.0577-7.8194-3.7837-15.736-5.3476-23.672-0.7121-3.6147 1.5559-5.9893 5.2872-6.1288 2.865-0.1068 5.7387-0.021 8.6082-0.021zm-3.5073-20.01c-4.191-3e-3 -8.3851-0.0456-12.576 7e-3 -12.811 0.1553-20.153 8.7605-17.618 21.428 2.3916 11.96 5.542 23.763 8.3148 35.645 2.6178 11.212 13.778 21.006 26.894 20.089 8.4656-0.5942 17.003-0.065 25.508-0.129 11.827-0.0873 18.92-8.1941 16.705-19.954-2.4134-12.827-5.2786-25.591-8.5444-38.225-2.8143-10.88-13.488-18.647-24.667-18.844-4.6698-0.083-9.3425-0.015-14.015-0.0167"/><path d="m300.81 446.59c1.7105 1.963 2.8511 3.1445 3.8452 4.4379 10.213 13.303 20.404 26.624 30.6 39.941 0.2203 0.2871 0.4366 0.5774 0.6605 0.8614 4.1369 5.2041 9.4552 6.3771 13.724 3.03 4.3381-3.403 4.513-8.6038 0.2869-14.108-15.214-19.811-30.483-39.578-45.711-59.375-2.2519-2.9268-4.9615-4.847-8.7869-4.8643-4.1802-0.0218-6.588 1.4281-7.8556 5.4839-6.2351 19.97-12.437 39.951-18.499 59.974-1.8459 6.0982 0.6205 10.986 6.3297 13.654 5.5472 2.5937 9.9998 0.7793 11.859-5.1125 4.0011-12.68 7.8577-25.402 11.772-38.109 0.491-1.5951 0.9749-3.1915 1.7742-5.8136"/><path d="m461.95 514.41c10.716-0.3217 12.204-2.2621 9.7903-12.908-5.4017-23.83-10.777-47.666-16.184-71.494-0.4026-1.7674-0.8745-3.5295-1.4794-5.2351-1.552-4.3673-4.5888-6.643-9.2818-6.5205-2.156 0.0544-4.316-0.0442-6.4726-0.0102-6.7921 0.1037-9.2027 3.0356-7.7673 9.6936 1.7314 8.0337 3.6267 16.032 5.4403 24.047 3.8713 17.116 7.7562 34.23 11.589 51.353 0.9207 4.1133 1.9559 8.293 6.283 9.9113 2.4959 0.9329 5.3761 0.8107 8.0827 1.1631"/><path d="m476.58 418.2c-11.122-2e-3 -12.477 1.9-9.9167 13.005 5.6744 24.607 11.197 49.251 16.842 73.863 1.4947 6.5174 4.2154 8.7015 10.758 8.9368 2.2723 0.0813 4.5502-4e-3 6.8233-0.0683 5.7951-0.1585 8.0402-2.9759 6.7683-8.6585-3.9572-17.681-7.9722-35.35-11.95-53.025-1.6701-7.4282-3.3054-14.864-4.9425-22.301-2.1795-9.8989-4.4384-11.752-14.382-11.752"/></g><g transform="translate(0 -10.96)" stroke-width=".99975"><path d="m339.36 670.73c-0.2804 12.352 1.6568 24.089 6.7889 35.099 13.461 28.88 36.666 45.481 66.853 52.262 62.01 13.929 111.56-27.932 121.1-83.385 9.3875-54.581-24.324-108.58-76.11-122.27-5.0683-1.3399-10.284-2.1096-15.692-2.4228 0.2866 0.1905 0.549 0.4496 0.8631 0.5601 38.372 13.286 60.108 40.663 65.603 80.88 6.2883 46.018-24.05 89.111-69.053 98.232-23.237 4.7095-45.922 2.352-66.698-10.262-17.081-10.371-26.464-26.524-32.066-45.307-0.2763-0.9264-0.5292-1.8601-0.8382-2.7749-0.0581-0.1735-0.3262-0.2747-0.7514-0.6089" fill="#ff6610"/><path d="m392.86 762.27c-6.9591-3.4719-16.055-6.9049-23.962-12.163-24.249-16.128-37.848-39.23-41.209-68.388-4.3492-37.747 14.072-76.361 50.187-92.237 30.554-13.43 60.783-10.521 88.837 7.924 15.534 10.214 24.302 25.761 29.652 43.397 0.2792 0.9207 0.5536 1.8428 0.8294 2.7641 0.3319-0.0414 0.6658-0.0811 0.9978-0.123-0.5295-5.0959-0.6353-10.282-1.6608-15.274-5.3538-26.003-20.477-45.12-42.377-58.807-29.279-18.3-60.574-22.847-92.387-8.4206-35.739 16.208-55.466 45.553-59.568 84.664-4.1069 39.165 9.5269 71.661 40.047 96.419 15.34 12.446 32.668 18.82 50.613 20.244" fill="#112a6a"/><path d="m403.05 713.16c-8.1501-4.5785-15.544-9.8504-21.756-16.724-12.604-13.951-17.26-29.996-11.78-48.356 6.3969-21.431 27.424-35.474 49.487-33.399 3.6895 0.3475 7.4299 0.5085 11.047 1.2481 16.885 3.4552 29.644 12.028 35.046 29.528-0.1411-7.9753-2.8788-15.007-7.6082-21.261-9.4739-12.532-22.614-18.856-37.491-21.712-17.582-3.3758-33.992-0.4926-47.893 11.599-20.837 18.126-24.727 49.013-9.2676 72.124 9.343 13.968 22.366 22.668 38.466 26.779 0.5612 0.144 1.1645 0.1196 1.7495 0.1737" fill="#ff6610"/><path d="m375.32 661.19c-1.1196 9.3869 0.8969 17.959 5.9038 25.702 9.1887 14.211 22.431 21.986 38.917 23.833 19.392 2.1733 36.54-2.8231 49.284-18.564 21.54-26.602 12.794-69.636-16.813-83.862-2.0194-0.9703-4.1422-1.7255-6.3983-2.1881 3.0055 2.2779 6.1716 4.3699 8.9909 6.8638 15.584 13.797 18.818 31.251 13.432 50.544-5.1981 18.623-17.661 30.162-36.712 32.893-17.877 2.562-43.013-4.1116-54.165-29.689-0.8054-1.8479-1.6266-3.6878-2.441-5.5323" fill="#112a6a"/></g><g fill="#112a6a"><path d="m505.22 377.94c3.2834 4.6616 5.9706 8.4815 8.6578 12.3 3.0595 4.3446 3.9946 4.6712 10.175 3.2496-0.7755-4.6814-1.5505-9.4107-2.3448-14.138-0.8416-5.0088-1.7175-10.014-2.5537-15.022-0.9851-5.8957-1.6263-6.3088-8.1596-4.7633 0.5383 3.2757 1.0817 6.5843 1.6277 9.8926 0.5468 3.3066 1.0979 6.6155 1.6464 9.9219-0.3212 0.1836-0.6418 0.3656-0.9635 0.5493-1.4001-1.938-2.9699-3.776-4.1565-5.8388-1.4272-2.4792-3.5773-3.511-5.9885-2.6402-1.3178 0.476-2.2668 2.3488-3.0872 3.765-0.8059 1.3935-1.2393 3.0067-1.836 4.5235-0.324-0.0173-0.6468-0.0354-0.9703-0.0547-0.926-5.1276-1.826-10.262-2.7878-15.382-1.116-5.9434-1.7198-6.2954-8.1383-4.7494 1.5188 8.6448 3.0396 17.312 4.5624 25.978 0.2491 1.4306 0.4382 2.8772 0.7783 4.2854 0.4505 1.8607 0.0304 4.2542 3.1723 4.3498 2.8993 0.0881 4.9961-0.1959 5.9-3.6536 1.027-3.9353 2.6992-7.6981 4.4666-12.572"/><path d="m621.73 380.05c0.0983 6.588-2.1251 8.8078-6.3374 7.5551-1.9009-0.5683-4.2786-2.3462-4.8427-4.0991-1.3884-4.3144-2.1717-8.902-2.5804-13.436-0.3249-3.6037 2.289-5.4984 5.8552-4.9742 2.888 0.4269 4.9176 2.0942 5.6651 4.8722 1.0579 3.9381 1.7796 7.9673 2.2402 10.082zm7.7683 0.4376c-0.5592-2.6237-1.1622-7.4752-2.6569-12.026-2.7762-8.4487-12.443-12.489-20.556-8.9924-3.9432 1.6999-6.33 4.955-5.9711 9.0712 0.5079 5.8354 1.2529 11.852 3.2102 17.309 2.7553 7.685 12.884 11.063 20.309 7.609 4.5635-2.1243 5.7915-6.118 5.665-12.97"/><path d="m553.81 382.62c-0.7464 1.2835-1.3859 3.8883-2.8622 4.532-1.7767 0.7745-4.4379 0.3266-6.3822-0.4478-1.2892-0.514-2.4823-2.4035-2.8644-3.8988-1.0111-3.9597-1.8541-8.013-2.2133-12.077-0.3968-4.487 2.8234-6.9676 6.9364-5.2022 1.9333 0.8289 3.9118 2.9248 4.6539 4.9113 1.3295 3.5598 1.7391 7.4705 2.7318 12.182zm-22.554-12.012c1.0494 4.6973 1.6855 9.5406 3.2378 14.062 2.8786 8.3875 12.623 12.38 20.68 8.9003 3.9982-1.73 6.1469-5.1194 5.7736-9.1945-0.5349-5.8428-1.296-11.859-3.2457-17.332-2.7836-7.8092-13.797-11.123-20.965-7.026-4.0286 2.3023-5.1947 6.0897-5.4808 10.591"/><path d="m645.66 358.28c-1.7822 0.216-3.5569 0.54-5.3448 0.6216-2.7856 0.1262-3.715 1.1554-2.9843 4.1196 0.4865 1.9783 1.1274 2.6439 3.0768 2.4098 2.4925-0.2988 5.0635-0.7566 7.5013-0.4156 1.6463 0.231 4.1558 1.501 4.409 2.7062 0.3095 1.4845-0.9788 3.718-2.2059 5.0222-1.5293 1.6276-3.6766 2.6759-5.6004 3.9056-3.5728 2.2847-4.7963 5.5853-4.1304 9.676 0.6063 3.7287 2.865 6.5679 6.3794 7.0362 5.1477 0.6826 10.421 0.4751 15.637 0.3778 0.5046-0.0102 1.5361-2.0542 1.3252-2.9004-0.2982-1.1985-1.453-2.9832-2.3698-3.0665-2.7105-0.2466-5.5097 0.5278-8.2227 0.2942-1.6761-0.1445-3.2601-1.3991-4.8852-2.1551 0.9207-1.4996 1.5803-3.2857 2.8219-4.428 1.7523-1.6118 3.9994-2.6552 5.919-4.1006 5.9938-4.5139 5.4587-13.344-1.2719-16.755-3.0045-1.5219-6.5651-1.921-9.8717-2.8295-0.0612 0.1585-0.1227 0.3212-0.1825 0.4816"/><path d="m595.96 394.12c-0.4139-6.0457-0.419-6.2067-5.4961-6.0347-2.9103 0.0987-4.2333-0.6879-4.6593-3.8256-0.9074-6.692-2.2278-13.328-3.4492-19.975-1.1174-6.0755-1.4757-6.2649-8.3648-4.79 1.5636 9.271 3.1332 18.579 4.7665 28.254-3.0183 0.1639-5.4873 0.296-7.9316 0.4286-0.7779 5.3431-0.2858 5.9389 4.841 5.942 6.6753 3e-3 13.352 0 20.294 0"/></g><path d="m37.873 120.72c-0.2798 12.352 1.6574 24.089 6.7896 35.099 13.461 28.88 36.666 45.481 66.852 52.262 62.01 13.929 111.56-27.932 121.1-83.385 9.3884-54.581-24.324-108.58-76.11-122.27-5.0686-1.3399-10.284-2.1093-15.692-2.4225 0.2872 0.1902 0.5496 0.4496 0.8634 0.5598 38.371 13.286 60.108 40.664 65.604 80.88 6.2881 46.018-24.05 89.111-69.054 98.232-23.237 4.7092-45.922 2.3519-66.698-10.262-17.081-10.371-26.464-26.524-32.066-45.307-0.277-0.9263-0.5296-1.8603-0.8383-2.7751-0.0581-0.1735-0.3268-0.2747-0.752-0.6089" fill="#ff6610"/><path d="m91.374 212.26c-6.9588-3.4722-16.055-6.9049-23.961-12.163-24.249-16.128-37.849-39.23-41.21-68.388-4.3489-37.748 14.072-76.361 50.187-92.237 30.554-13.43 60.784-10.521 88.837 7.9243 15.534 10.214 24.302 25.761 29.653 43.397 0.2789 0.9204 0.553 1.8428 0.8288 2.7641 0.3322-0.0414 0.6664-0.0814 0.9978-0.1231-0.5295-5.0958-0.6347-10.282-1.6605-15.274-5.3535-26.003-20.478-45.12-42.377-58.807-29.28-18.3-60.575-22.847-92.388-8.4206-35.739 16.208-55.466 45.553-59.568 84.664-4.1062 39.165 9.5276 71.661 40.047 96.419 15.341 12.446 32.668 18.821 50.613 20.245" fill="#112a6a"/><path d="m101.56 163.16c-8.151-4.5785-15.545-9.8507-21.756-16.724-12.605-13.95-17.259-29.996-11.78-48.356 6.397-21.431 27.424-35.474 49.487-33.399 3.6895 0.3472 7.4299 0.5085 11.047 1.2478 16.885 3.4552 29.643 12.028 35.046 29.528-0.1408-7.9753-2.8783-15.007-7.6079-21.261-9.4745-12.531-22.614-18.856-37.491-21.712-17.582-3.3755-33.992-0.4926-47.892 11.599-20.837 18.126-24.727 49.013-9.2676 72.124 9.343 13.968 22.365 22.668 38.466 26.779 0.5619 0.144 1.1651 0.1197 1.7501 0.1738" fill="#ff6610"/><g fill="#112a6a"><path d="m73.832 111.18c-1.1203 9.3869 0.8968 17.959 5.9037 25.702 9.1888 14.211 22.431 21.986 38.917 23.833 19.392 2.1733 36.54-2.8228 49.284-18.564 21.54-26.602 12.794-69.635-16.813-83.862-2.0194-0.9706-4.1419-1.7258-6.398-2.1884 3.0055 2.2782 6.1716 4.3702 8.9903 6.8638 15.584 13.797 18.818 31.251 13.433 50.544-5.1981 18.623-17.662 30.162-36.712 32.892-17.878 2.5622-43.014-4.1114-54.166-29.689-0.8047-1.8476-1.6262-3.6878-2.4403-5.5323"/><path d="m740.18 133.06c-11.357 0-22.713-0.019-34.07 0.015-2.5086 8e-3 -5.0643-0.0683-7.5157 0.3713-4.8031 0.8581-7.9645 4.5542-7.8418 9.4114 0.2078 8.2587 5.6336 15.593 14.613 15.488 23.617-0.2806 47.24-0.1219 70.861-0.0672 4.0474 8e-3 7.7982-0.4686 9.7646-4.6057 2.0814-4.3883 2.5134-8.985-0.345-13.142-1.6084-2.3366-3.8036-4.3603-6.0239-6.1512-18.941-15.254-37.948-30.423-56.931-45.622-0.8898-0.7146-1.7453-1.4706-2.3366-3.0407 1.2313-0.061 2.4636-0.1704 3.6946-0.1738 12.11-0.0456 24.22 0.0034 36.329-0.1347 7.0755-0.0799 10.293-3.6547 10.04-10.711-0.2965-8.3013-6.3547-14.289-14.553-14.295-23.74-0.0184-47.481-0.0184-71.222 0-8.0005 0.0049-12.226 5.6841-10.14 13.562 1.3201 4.9881 4.1729 8.8353 8.1955 12.027 18.39 14.588 36.702 29.277 55.037 43.937 0.9218 0.7367 1.7892 1.5454 2.6816 2.3187z"/><path d="m338.79 112.02c-1.1038 7.492-2.0769 14.42-3.1733 21.33-0.3201 2.0188 0 4.6242-3.1658 4.8569-2.9883 0.2202-5.2662-0.4221-6.6143-3.6255-2.7173-6.4531-5.7598-12.767-8.6395-19.152-0.4617-1.0224-0.7738-2.1143-1.2401-3.4095zm30.192-38.609c-3e-3 -9.4144-7.992-16.104-16.29-14.454-4.4742 0.8903-6.7181 3.992-7.4114 8.2961-1.0202 6.3264-2.0073 12.665-2.7375 19.03-0.2826 2.4651-1.1355 3.2911-3.5781 3.2653-10.065-0.1123-20.133-0.1415-30.198 0.0147-2.4879 0.0391-3.5645-0.9329-4.5031-3.0895-3.0844-7.0874-6.2215-14.161-9.6358-21.093-2.6561-5.3918-7.3494-7.454-13.18-6.3845-6.2949 1.1545-10.026 7.0041-8.3384 13.272 0.5318 1.9683 1.3235 3.8897 2.1841 5.7424 11.35 24.436 22.813 48.817 34.053 73.302 2.9537 6.4335 7.6898 9.2475 14.464 9.2152 6.5914-0.0324 13.183 0 19.774-8e-3 8.1348-0.0102 11.615-2.9029 12.953-10.96 2.4562-14.796 4.8243-29.605 7.2635-44.404 1.5551-9.4334 3.179-18.856 4.7508-28.287 0.2387-1.4272 0.3583-2.8746 0.4298-3.458"/><path d="m471.22 108.22c5.7702 0 11.252 0.0119 16.734-5e-3 3.5952-0.0116 7.1929 0.0275 10.784-0.1182 4.6916-0.1933 7.0166-2.9449 6.3703-7.6479-0.9922-7.2235-3.5377-11.544-12.05-11.262-7.541 0.25-15.098-0.0116-22.647 0.053-2.4573 0.0215-4.536 0.0391-4.7403-3.3231-0.2362-3.8749 1.0499-6.5307 4.0957-6.9803 2.4767-0.3662 5.014-0.4221 7.5252-0.4345 11.976-0.0607 23.954 0.0683 35.927-0.1321 5.8096-0.0953 7.7483-2.166 7.7208-7.1453-0.0326-6.0625-3.7749-10.768-8.8696-10.794-14.739-0.0765-29.479-0.03-44.219-0.03-2.1566 0-4.3143-0.0057-6.4709 0-11.789 0.0343-19.04 9.0465-16.511 21.296 2.4676 11.952 5.2869 23.854 8.5193 35.62 3.4497 12.562 13.528 19.814 26.398 19.826 15.579 0.0125 31.158 8e-3 46.735-1e-3 5.7104-5e-3 8.3211-2.0415 8.4449-6.5285 0.1707-6.1404-3.2848-11.098-8.2924-11.332-5.98-0.2795-11.98-0.2095-17.969-0.2194-8.3886-0.0133-16.779 0.1571-25.164 0.0258-6.2595-0.0972-11.025-4.2463-12.32-10.867"/><path d="m633.97 80.42v-0.0147c2.5121 0 5.0233-0.0241 7.535 0.0048 5.4125 0.0632 9.5874 2.8803 10.991 8.1119 1.9681 7.3324 3.6553 14.752 5.1942 22.191 0.9238 4.4671-1.2782 7.011-5.7492 7.0793-5.3799 0.083-10.764 0.0813-16.145-2e-3 -4.6403-0.0726-9.2041-3.0958-10.374-7.5487-2.0576-7.8194-3.7839-15.736-5.3475-23.672-0.7124-3.6148 1.5556-5.9893 5.2872-6.1288 2.8649-0.1072 5.739-0.021 8.6085-0.021zm-3.5076-20.01c-4.1913-0.0031-8.3852-0.0454-12.577 0.0071-12.811 0.155-20.153 8.7604-17.618 21.428 2.3913 11.96 5.542 23.763 8.3148 35.645 2.6181 11.212 13.778 21.006 26.893 20.088 8.4654-0.5938 17.002-0.0649 25.508-0.1289 11.827-0.0871 18.919-8.1939 16.705-19.954-2.4137-12.827-5.2792-25.591-8.5448-38.224-2.8139-10.88-13.488-18.647-24.667-18.844-4.6698-0.0833-9.3425-0.0153-14.015-0.017"/><path d="m399.36 88.793c1.7105 1.963 2.8506 3.1445 3.8452 4.4379 10.213 13.304 20.403 26.624 30.6 39.941 0.2203 0.2875 0.4366 0.5775 0.6605 0.8615 4.1366 5.2041 9.455 6.3771 13.725 3.0299 4.3378-3.4027 4.5125-8.6034 0.2866-14.107-15.214-19.811-30.483-39.578-45.712-59.375-2.2519-2.927-4.9615-4.8469-8.786-4.8642-4.1806-0.0219-6.588 1.4278-7.856 5.4839-6.235 19.97-12.437 39.951-18.499 59.974-1.846 6.0979 0.6208 10.985 6.3294 13.654 5.5474 2.5937 10.001 0.779 11.86-5.1129 4.0011-12.679 7.858-25.402 11.772-38.109 0.4913-1.5951 0.9749-3.1916 1.7742-5.8136"/><path d="m560.5 156.61c10.716-0.3215 12.204-2.2621 9.7901-12.908-5.4017-23.83-10.776-47.666-16.184-71.495-0.4019-1.7671-0.8742-3.5291-1.4796-5.2347-1.5517-4.3673-4.5885-6.643-9.2815-6.5208-2.1558 0.0547-4.3161-0.044-6.4726-0.0102-6.7919 0.1037-9.2024 3.0359-7.767 9.6936 1.7314 8.0337 3.6264 16.032 5.44 24.047 3.8713 17.116 7.7559 34.23 11.589 51.353 0.9204 4.1133 1.9557 8.2933 6.283 9.9116 2.4959 0.9326 5.3762 0.8104 8.0827 1.1628"/><path d="m575.13 60.4c-11.122-0.0014-12.478 1.9001-9.917 13.005 5.6744 24.607 11.196 49.251 16.842 73.863 1.4947 6.5177 4.2154 8.7015 10.758 8.9368 2.272 0.0813 4.5502-4e-3 6.823-0.0681 5.7954-0.1587 8.0405-2.9761 6.7686-8.6584-3.9572-17.682-7.9725-35.35-11.949-53.026-1.6707-7.4279-3.3061-14.864-4.9428-22.301-2.1795-9.8988-4.4388-11.752-14.382-11.752"/><path d="m603.77 20.137c3.2828 4.6612 5.9706 8.4815 8.6581 12.3 3.0589 4.3449 3.9946 4.6712 10.175 3.2499-0.7761-4.6817-1.5511-9.411-2.3454-14.138-0.8413-5.0088-1.7172-10.014-2.5537-15.022-0.9845-5.8958-1.6263-6.3088-8.1596-4.7636 0.5383 3.2757 1.0823 6.5846 1.628 9.8929 0.5468 3.3066 1.0973 6.6158 1.646 9.9218-0.3211 0.1837-0.6417 0.3657-0.9634 0.5494-1.3995-1.9381-2.9699-3.776-4.1559-5.8385-1.4278-2.4792-3.5776-3.5113-5.9888-2.6402-1.3175 0.4759-2.2668 2.3485-3.0869 3.765-0.8062 1.3932-1.2399 3.0064-1.836 4.5235-0.324-0.0173-0.6474-0.0354-0.9709-0.055-0.9261-5.1276-1.8258-10.262-2.7878-15.382-1.1158-5.9437-1.7195-6.2957-8.138-4.7497 1.5185 8.6451 3.0396 17.312 4.5623 25.978 0.2495 1.4309 0.4383 2.8771 0.7784 4.2857 0.4502 1.8606 0.0301 4.2542 3.1723 4.3497 2.8993 0.0882 4.9958-0.1958 5.9003-3.6538 1.0267-3.9354 2.6989-7.6981 4.4663-12.572"/><path d="m720.28 22.254c0.0983 6.588-2.1255 8.8078-6.3377 7.5555-1.901-0.5686-4.2787-2.3465-4.8427-4.0992-1.3885-4.3143-2.1717-8.9019-2.5801-13.436-0.3252-3.604 2.2887-5.499 5.8555-4.9746 2.8874 0.4269 4.917 2.0943 5.6647 4.8725 1.0576 3.9379 1.7793 7.9674 2.2403 10.081zm7.768 0.438c-0.559-2.6238-1.1622-7.4755-2.6566-12.027-2.7765-8.4489-12.443-12.489-20.556-8.9923-3.9438 1.6996-6.3306 4.9547-5.9718 9.0714 0.5086 5.8351 1.253 11.852 3.2103 17.309 2.7555 7.6847 12.885 11.063 20.309 7.609 4.5635-2.1243 5.7909-6.118 5.6647-12.97"/><path d="m652.36 24.816c-0.7461 1.2835-1.3856 3.8883-2.8622 4.532-1.7767 0.7744-4.4376 0.3263-6.3822-0.4479-1.2895-0.5142-2.4823-2.4035-2.8641-3.899-1.0114-3.9595-1.8544-8.013-2.2136-12.077-0.3968-4.487 2.823-6.9679 6.9364-5.2025 1.9329 0.8292 3.9121 2.9251 4.6539 4.9116 1.3295 3.5601 1.7388 7.4705 2.7318 12.183zm-22.554-12.012c1.0491 4.697 1.6858 9.5405 3.2378 14.062 2.8783 8.3877 12.623 12.381 20.679 8.9005 3.9991-1.73 6.1475-5.1193 5.7739-9.1944-0.5349-5.8431-1.2958-11.859-3.2454-17.333-2.7839-7.8091-13.797-11.123-20.965-7.0259-4.028 2.302-5.1947 6.0897-5.4805 10.591"/><path d="m744.21 0.4819c-1.7822 0.216-3.5567 0.54-5.3445 0.6213-2.7853 0.1265-3.7151 1.1557-2.984 4.1199 0.4858 1.9783 1.127 2.6436 3.0761 2.4095 2.4925-0.2985 5.0639-0.7563 7.5017-0.4156 1.6466 0.231 4.1558 1.5012 4.409 2.7065 0.3098 1.4848-0.9788 3.7179-2.2062 5.0225-1.5293 1.6276-3.676 2.6759-5.6005 3.9052-3.5727 2.2848-4.7956 5.5854-4.1303 9.6761 0.6066 3.729 2.8652 6.5682 6.3794 7.0362 5.1477 0.6828 10.422 0.4751 15.637 0.3778 0.5043-0.0099 1.5361-2.0542 1.3252-2.9001-0.2982-1.1988-1.4534-2.9835-2.3695-3.0665-2.7111-0.2466-5.5097 0.5275-8.223 0.2939-1.6762-0.1445-3.2602-1.3989-4.8853-2.1549 0.9204-1.4998 1.5804-3.2856 2.8219-4.428 1.7527-1.6117 3.9994-2.6552 5.9188-4.1006 5.9944-4.5139 5.4589-13.344-1.2719-16.755-3.0039-1.5219-6.5651-1.921-9.8714-2.8298-0.0612 0.1587-0.1227 0.3214-0.1828 0.4819"/><path d="m694.51 36.323c-0.4136-6.0457-0.4187-6.2068-5.4964-6.035-2.9103 0.099-4.2327-0.6877-4.659-3.8256-0.9071-6.692-2.2275-13.328-3.4495-19.975-1.1174-6.0755-1.4757-6.2649-8.3648-4.7903 1.5636 9.2716 3.1332 18.579 4.7668 28.255-3.0186 0.1638-5.4873 0.2957-7.9319 0.4286-0.7776 5.3427-0.2852 5.9386 4.8413 5.942 6.6753 0.0031 13.352 0 20.294 0"/></g></g></g></svg>
